<?xml version="1.0" standalone="no"?>
<!DOCTYPE svg PUBLIC "-//W3C//DTD SVG 20010904//EN"
 "http://www.w3.org/TR/2001/REC-SVG-20010904/DTD/svg10.dtd">
<svg version="1.0" xmlns="http://www.w3.org/2000/svg"
 width="786.000000pt" height="787.000000pt" viewBox="0 0 786.000000 787.000000"
 preserveAspectRatio="xMidYMid meet">

<g transform="translate(0.000000,787.000000) scale(0.100000,-0.100000)"
fill="#000000" stroke="none">
<path d="M3665 7864 c-353 -35 -455 -52 -690 -110 -1046 -262 -1926 -929
-2462 -1864 -242 -422 -402 -886 -481 -1395 -25 -162 -27 -189 -27 -555 0
-409 8 -509 66 -789 244 -1191 1017 -2198 2098 -2737 591 -294 1195 -428 1861
-411 983 24 1895 401 2603 1075 236 225 397 415 571 677 350 525 552 1071 638
1730 21 160 18 754 -5 930 -134 1041 -645 1952 -1455 2598 -234 186 -440 316
-727 457 -387 190 -757 304 -1195 366 -146 21 -223 25 -465 28 -159 2 -308 2
-330 0z m532 -142 c90 -32 179 -87 246 -154 33 -32 68 -58 78 -58 25 0 161 44
249 80 40 17 74 30 76 30 7 0 125 -206 130 -226 4 -17 20 -26 72 -39 191 -48
343 -187 401 -367 7 -21 16 -40 21 -43 5 -3 57 13 116 36 121 47 115 48 237
-29 64 -41 69 -52 71 -150 l1 -66 131 -108 c132 -108 328 -295 443 -421 68
-76 240 -302 317 -417 382 -571 582 -1255 567 -1935 -3 -143 -20 -346 -34
-413 -5 -23 -16 -93 -25 -155 -30 -215 -104 -466 -209 -711 -40 -95 -147 -312
-174 -356 -6 -8 -37 -60 -70 -116 -34 -56 -70 -109 -81 -119 -11 -10 -18 -21
-15 -25 2 -4 -9 -22 -24 -41 l-29 -34 -188 64 c-104 34 -238 81 -299 102 -60
22 -123 44 -140 48 -31 9 -565 187 -719 241 -74 26 -102 42 -158 92 -37 33
-65 64 -62 69 3 5 0 8 -8 7 -10 -2 -14 37 -18 192 -10 379 -9 401 32 525 42
128 70 257 95 438 16 118 19 127 39 127 39 0 106 29 150 65 48 40 144 187 182
280 68 167 97 311 97 485 0 129 -1 137 -27 182 -31 51 -79 86 -133 95 -19 3
-35 11 -35 18 0 7 16 87 35 178 71 340 111 713 87 817 -6 24 -9 46 -7 49 3 2
39 -31 81 -73 42 -42 78 -76 80 -76 2 0 4 28 4 63 -1 165 -83 337 -205 428
l-40 30 40 -7 c87 -15 249 -103 296 -162 l22 -27 -6 30 c-10 53 -46 140 -78
188 -37 56 -133 131 -199 154 l-48 17 42 51 c24 27 55 70 69 95 25 44 63 158
55 165 -2 2 -33 -5 -68 -16 -71 -23 -222 -36 -294 -25 -42 7 -46 10 -46 36 0
50 -39 156 -76 206 -73 99 -181 157 -330 177 -70 10 -84 14 -84 30 0 19 -30
170 -34 175 -2 1 -25 -7 -52 -19 -181 -79 -288 -65 -424 55 -117 104 -245 148
-374 128 -115 -18 -198 -66 -326 -187 -85 -81 -142 -120 -217 -148 -73 -28
-273 -81 -279 -74 -3 2 14 27 37 54 41 51 128 126 206 177 24 16 41 32 38 36
-11 19 -112 33 -194 27 -352 -23 -651 -395 -651 -812 l0 -84 -92 -48 c-159
-83 -274 -220 -332 -393 -60 -183 -58 -464 5 -702 19 -70 39 -95 39 -50 0 9 9
35 19 57 l18 40 12 -110 c7 -60 26 -182 42 -270 16 -88 29 -167 29 -175 0 -9
-17 -20 -42 -28 -63 -20 -94 -47 -124 -107 -22 -47 -27 -71 -29 -149 -10 -388
195 -807 411 -842 l42 -6 12 -82 c37 -259 66 -393 110 -520 18 -54 20 -83 20
-362 l0 -303 -47 -44 c-116 -109 -126 -115 -217 -147 -50 -17 -98 -33 -106
-35 -12 -4 -470 -158 -490 -166 -3 -1 -9 -3 -15 -4 -5 -1 -48 -16 -95 -33 -47
-17 -184 -63 -305 -103 -121 -40 -239 -80 -262 -90 l-42 -18 -33 42 c-39 49
-65 88 -66 101 0 5 -4 12 -9 15 -15 11 -84 122 -130 209 -25 48 -50 93 -55
100 -6 6 -7 12 -3 12 5 0 1 8 -7 18 -18 20 -70 129 -122 254 -88 215 -169 499
-192 673 -1 11 -9 67 -17 125 -50 334 -36 812 33 1145 66 321 166 604 316 893
122 235 244 419 427 647 97 121 387 412 517 517 171 139 441 316 632 415 l77
40 46 90 c75 151 228 307 375 383 86 44 187 71 287 77 112 7 193 -7 287 -50
48 -22 71 -28 73 -20 6 18 129 102 188 129 93 43 152 54 275 51 86 -3 130 -9
177 -25z m43 -612 c-9 -6 -10 -10 -3 -10 6 0 15 5 18 10 10 16 125 11 226 -10
127 -26 226 -42 272 -43 22 -1 36 -5 33 -11 -2 -6 -9 -10 -15 -8 -6 1 -11 -3
-11 -9 0 -8 -5 -7 -15 1 -9 7 -18 10 -22 6 -3 -3 0 -6 8 -6 8 -1 3 -7 -11 -14
-77 -41 -256 -51 -357 -21 -35 10 -63 23 -63 27 0 5 -5 6 -10 3 -6 -4 -16 -3
-23 3 -7 5 -43 22 -82 38 l-70 29 50 12 c28 6 59 11 70 12 16 1 17 -1 5 -9z
m-318 -107 c7 -3 24 -8 37 -9 14 -2 59 -20 101 -41 111 -56 249 -196 312 -318
55 -106 92 -210 82 -226 -4 -7 -3 -9 3 -6 6 4 22 -29 39 -83 16 -50 32 -90 36
-90 5 0 8 -7 8 -15 0 -7 8 -19 18 -24 9 -6 13 -11 8 -11 -6 0 -1 -7 10 -15 12
-9 14 -14 6 -15 -24 0 -122 49 -175 89 -46 33 -70 58 -146 146 -38 44 -75 98
-62 90 10 -5 12 -4 7 4 -4 6 -2 20 6 29 11 15 11 16 -3 4 -13 -10 -21 -8 -43
9 -21 17 -24 24 -15 35 10 12 9 13 -4 8 -10 -3 -20 3 -27 18 -7 13 -21 33 -32
45 -11 12 -17 26 -14 32 4 6 1 9 -7 5 -8 -3 -21 3 -28 14 -8 10 -28 27 -46 37
-18 10 -29 23 -26 29 3 6 2 8 -2 3 -5 -4 -18 -1 -31 7 -12 8 -52 25 -89 37
-58 19 -81 21 -159 15 -146 -10 -231 -50 -336 -155 -36 -36 -68 -65 -72 -63
-4 1 -4 -6 -1 -15 4 -11 3 -14 -5 -9 -7 4 -12 1 -12 -8 0 -9 -5 -16 -11 -16
-6 0 -8 9 -4 21 5 15 4 19 -4 15 -17 -11 -13 10 4 24 17 14 21 35 5 25 -14 -9
-12 7 4 30 14 20 16 27 16 44 0 5 12 24 28 42 15 18 25 35 24 37 -8 8 71 91
81 85 5 -3 7 -1 3 5 -10 17 13 25 32 10 15 -12 16 -11 4 4 -12 15 -9 20 27 43
53 33 131 65 201 81 56 14 229 12 252 -3z m-562 -39 c0 -2 -33 -20 -72 -40
-171 -85 -315 -219 -380 -351 -18 -38 -38 -72 -45 -76 -7 -4 -13 -18 -14 -30
-1 -20 -2 -20 -8 3 -4 15 -3 28 3 33 7 5 6 10 -4 17 -12 7 -12 12 -2 22 14 14
16 32 2 23 -6 -3 -8 9 -6 32 5 42 54 162 67 164 13 2 28 6 34 9 3 1 9 3 14 4
5 0 12 4 16 8 9 9 -16 5 -32 -5 -20 -13 -15 1 13 39 14 18 30 32 34 29 4 -3
10 1 13 8 13 35 184 101 282 110 52 4 85 4 85 1z m-781 -647 c6 -8 9 -17 6
-20 -3 -4 -2 -5 2 -2 7 6 33 -14 33 -25 0 -13 -111 -61 -123 -54 -7 4 -9 4 -5
-1 9 -10 -28 -38 -40 -31 -4 2 -14 0 -22 -6 -12 -8 -12 -9 3 -4 10 3 -13 -25
-51 -62 -38 -37 -72 -75 -75 -84 -10 -29 -28 -21 -21 10 10 47 68 157 82 155
6 -2 11 0 10 5 -8 23 87 106 111 97 8 -3 12 -3 8 1 -10 10 24 33 49 34 12 0
27 -6 33 -13z m1011 -212 c270 -47 520 -130 685 -228 199 -117 380 -340 439
-536 30 -100 17 -159 -40 -186 -18 -8 -117 -33 -220 -55 -265 -56 -337 -82
-404 -145 -34 -33 -36 -34 -85 -23 -36 8 -67 7 -113 -1 l-64 -12 -44 41 c-50
46 -99 70 -195 94 -138 34 -390 73 -591 90 l-57 4 -58 -60 c-92 -97 -127 -118
-189 -118 l-54 0 11 28 c6 15 30 66 55 114 l44 88 -2 327 -3 328 28 61 c51
109 148 181 285 209 108 23 381 13 572 -20z m-203 -1251 c192 -39 251 -112
240 -293 -9 -160 -74 -301 -166 -365 -116 -81 -358 -95 -501 -30 -112 51 -182
156 -216 323 -21 107 -16 224 12 272 35 60 117 92 279 110 92 10 262 2 352
-17z m1219 -15 c124 -47 333 -222 419 -352 l37 -56 -15 -50 c-33 -114 -148
-216 -276 -245 -82 -19 -198 -21 -273 -5 -198 42 -318 215 -318 459 1 156 57
225 218 265 68 17 133 12 208 -16z m-2257 -143 c36 -38 70 -146 85 -274 26
-211 39 -352 34 -358 -11 -10 -66 25 -97 63 -54 65 -99 242 -108 423 -5 87 -3
112 11 138 20 38 44 41 75 8z m1606 0 c18 -8 38 -23 44 -34 7 -14 11 -144 11
-387 l0 -367 -32 -30 c-54 -50 -77 -56 -166 -42 -87 15 -182 18 -181 7 0 -5
40 -37 90 -72 49 -36 89 -67 89 -70 0 -4 -65 -19 -144 -34 -79 -15 -193 -43
-252 -62 -155 -51 -232 -105 -296 -207 l-29 -48 -57 113 c-69 135 -130 225
-258 377 -53 63 -103 129 -110 145 -11 28 -44 273 -44 327 0 16 12 1 38 -47
69 -130 190 -229 323 -265 114 -31 309 -29 422 5 217 65 351 251 387 540 17
133 17 135 53 150 41 18 70 18 112 1z m73 -1432 c18 -5 22 -13 22 -48 0 -56
-28 -107 -70 -128 -29 -15 -63 -18 -196 -18 -120 0 -163 -3 -167 -12 -11 -32
25 -112 74 -159 55 -53 60 -76 29 -127 -20 -33 -86 -71 -124 -72 -76 -1 -181
79 -234 178 -84 158 -78 355 13 381 34 10 617 14 653 5z m-1049 -547 c153
-205 238 -280 1004 -886 268 -212 307 -246 301 -265 -16 -52 -116 -292 -127
-303 -35 -35 -391 -38 -572 -4 -325 61 -559 174 -745 361 -47 47 -107 118
-134 158 -59 90 -146 252 -145 272 0 8 24 35 52 59 29 24 96 84 150 133 l97
90 1 271 0 272 22 -29 c12 -16 55 -74 96 -129z m-1638 -1248 c36 -38 39 -83 7
-111 -12 -10 -28 -16 -35 -13 -8 2 -11 0 -8 -5 8 -14 -21 -13 -48 2 -37 20
-47 35 -47 77 0 31 6 44 26 60 38 30 71 26 105 -10z m5222 20 c52 -24 65 -94
25 -136 -47 -50 -137 -10 -137 62 0 33 13 55 44 73 25 14 38 15 68 1z m-410
-186 c90 -374 97 -413 74 -413 -19 0 -537 258 -537 268 0 4 18 25 40 47 l40
39 151 -78 c83 -42 154 -75 156 -72 3 2 -12 68 -32 146 -35 136 -35 143 -18
155 10 7 29 22 43 34 14 11 30 20 36 21 6 0 27 -66 47 -147z m-4122 -64 c21
-17 39 -34 39 -39 0 -18 -149 -267 -192 -321 -8 -9 -29 -26 -48 -38 -61 -37
-178 -23 -233 27 -20 18 -57 84 -57 102 0 10 80 50 99 50 4 0 14 -12 21 -26 8
-14 27 -32 42 -40 25 -13 32 -13 59 1 16 9 42 36 57 61 57 96 162 254 168 254
3 0 24 -14 45 -31z m3589 -214 c0 -5 -47 -32 -105 -59 -58 -27 -108 -52 -110
-57 -7 -10 26 -79 38 -79 5 0 43 16 84 35 41 19 79 35 84 35 5 0 18 -19 30
-42 25 -49 26 -48 -83 -104 -38 -19 -68 -37 -68 -40 0 -9 40 -84 45 -84 3 0
55 25 115 55 60 30 114 55 120 55 14 0 52 -79 46 -96 -7 -18 -333 -177 -350
-171 -6 3 -34 54 -60 113 -27 60 -76 167 -108 238 -44 95 -57 131 -48 140 6 6
79 45 163 86 l152 76 27 -46 c15 -25 28 -49 28 -55z m-3327 60 c20 -14 37 -32
37 -40 0 -9 -31 -78 -70 -155 -38 -77 -70 -151 -70 -166 0 -16 13 -39 34 -60
40 -40 89 -46 129 -14 14 11 58 82 96 158 94 183 79 168 139 138 l51 -26 -16
-37 c-42 -103 -134 -283 -158 -312 -91 -108 -286 -93 -370 27 -27 39 -30 52
-30 120 l0 77 84 158 c46 86 89 157 95 157 6 0 28 -11 49 -25z m2722 -279
c105 -48 168 -148 168 -265 0 -97 -37 -162 -123 -216 -46 -29 -270 -99 -281
-88 -7 7 -32 96 -131 451 -11 40 -18 76 -14 79 3 4 52 19 109 34 130 35 205
37 272 5z m-2021 -101 c14 -55 43 -179 65 -275 23 -96 43 -186 46 -199 6 -23
5 -24 -38 -18 -81 11 -92 19 -106 81 -14 62 -9 59 -142 106 l-66 24 -56 -48
-56 -48 -57 26 -58 27 55 57 c189 198 374 381 380 374 4 -4 19 -52 33 -107z
m504 -130 c73 -91 136 -165 140 -165 4 0 8 21 9 48 6 153 16 234 29 239 8 3
34 2 59 -1 l45 -7 0 -66 c0 -107 -31 -497 -40 -507 -6 -5 -16 -4 -25 4 -16 13
-214 252 -250 302 -24 33 -45 36 -45 6 0 -61 -23 -254 -31 -264 -6 -8 -25 -8
-62 -2 -28 5 -54 11 -55 13 -4 4 43 455 55 528 4 26 11 37 22 37 10 0 73 -70
149 -165z m856 84 c4 -29 3 -55 -1 -60 -4 -4 -58 -11 -120 -15 -61 -4 -116
-10 -121 -13 -6 -4 -8 -24 -5 -50 l6 -43 92 7 92 7 7 -32 c14 -73 12 -77 -55
-84 -34 -3 -77 -6 -95 -6 l-34 0 0 -56 c0 -55 0 -56 28 -50 15 3 73 8 129 12
115 7 109 10 116 -76 l2 -35 -80 -11 c-44 -6 -133 -14 -197 -18 l-117 -6 -5
43 c-8 65 -29 507 -25 512 5 5 200 20 300 23 l76 3 7 -52z"/>
<path d="M6159 5343 c-13 -16 -12 -17 4 -4 9 7 17 15 17 17 0 8 -8 3 -21 -13z"/>
<path d="M1216 4172 c-27 -15 -63 -44 -80 -65 -29 -36 -31 -45 -31 -117 0 -64
4 -84 21 -106 36 -49 70 -68 122 -68 83 0 142 53 142 129 0 74 -49 125 -121
125 -37 0 -40 2 -28 16 9 11 23 14 48 10 37 -6 71 14 71 40 0 11 -77 65 -91
64 -2 0 -26 -13 -53 -28z m62 -194 c34 -34 -6 -90 -48 -68 -35 19 -20 80 20
80 9 0 21 -5 28 -12z"/>
<path d="M1597 4176 c-104 -30 -151 -169 -94 -277 29 -55 76 -83 136 -83 92 1
158 66 167 165 5 46 1 62 -23 109 -41 79 -107 110 -186 86z m81 -109 c30 -32
37 -78 18 -115 -23 -45 -61 -52 -94 -18 -36 35 -37 94 -3 130 30 32 51 33 79
3z"/>
<path d="M6123 4167 c-34 -12 -65 -25 -68 -29 -4 -4 3 -21 15 -37 17 -25 26
-30 46 -25 28 7 26 15 28 -141 l1 -110 45 0 45 0 0 180 0 180 -25 2 c-14 1
-53 -8 -87 -20z"/>
<path d="M6497 4176 c-78 -28 -117 -88 -117 -176 0 -196 219 -256 308 -85 8
17 15 55 15 86 0 126 -102 212 -206 175z m84 -115 c33 -33 37 -67 14 -111 -36
-69 -118 -34 -118 49 0 30 7 49 23 66 30 32 45 31 81 -4z"/>
<path d="M2861 6544 c0 -11 3 -14 6 -6 3 7 2 16 -1 19 -3 4 -6 -2 -5 -13z"/>
<path d="M2540 6316 c0 -2 7 -7 16 -10 8 -3 12 -2 9 4 -6 10 -25 14 -25 6z"/>
<path d="M1271 1464 c0 -11 3 -14 6 -6 3 7 2 16 -1 19 -3 4 -6 -2 -5 -13z"/>
<path d="M4812 689 c-25 -8 -32 -14 -28 -26 4 -9 18 -57 32 -107 32 -117 54
-176 66 -176 19 0 115 51 132 69 63 69 44 182 -37 231 -35 22 -107 25 -165 9z"/>
<path d="M2863 551 l-32 -38 41 -17 c23 -8 43 -14 46 -12 6 7 -9 106 -16 106
-4 0 -21 -18 -39 -39z"/>
</g>
</svg>
