<?xml version="1.0" standalone="no"?>
<!DOCTYPE svg PUBLIC "-//W3C//DTD SVG 20010904//EN"
 "http://www.w3.org/TR/2001/REC-SVG-20010904/DTD/svg10.dtd">
<svg version="1.0" xmlns="http://www.w3.org/2000/svg"
 width="1024.000000pt" height="1024.000000pt" viewBox="0 0 1024.000000 1024.000000"
 preserveAspectRatio="xMidYMid meet">

<g transform="translate(0.000000,1024.000000) scale(0.100000,-0.100000)"
fill="#000000" stroke="none">
<path d="M4860 9124 c-19 -2 -84 -9 -145 -15 -649 -64 -1239 -271 -1780 -625
-703 -459 -1282 -1164 -1585 -1929 -200 -504 -292 -984 -291 -1510 0 -368 36
-670 115 -990 190 -762 537 -1386 1081 -1944 387 -397 793 -673 1310 -889 745
-313 1587 -386 2395 -211 506 110 1071 369 1496 684 519 386 941 888 1230
1465 221 442 354 897 421 1445 21 176 24 651 5 835 -54 513 -191 980 -421
1435 -347 686 -907 1296 -1528 1666 -658 391 -1286 573 -2018 584 -137 2 -266
1 -285 -1z m520 -233 c87 -28 180 -84 254 -153 34 -32 70 -58 82 -58 21 0 189
55 256 84 63 27 72 23 119 -56 24 -40 53 -94 66 -120 20 -43 27 -48 80 -63
193 -56 323 -166 393 -332 20 -48 34 -69 49 -71 11 -2 61 13 112 33 l91 37 66
-34 c36 -18 83 -49 104 -69 38 -35 38 -37 38 -111 l0 -76 141 -117 c551 -458
949 -1035 1158 -1678 122 -376 177 -807 153 -1195 -7 -108 -19 -233 -27 -277
-8 -44 -22 -128 -30 -186 -27 -187 -88 -410 -165 -605 -52 -129 -83 -193 -91
-188 -5 3 -6 -2 -3 -10 5 -12 -68 -170 -86 -186 -3 -3 -19 -34 -37 -70 -17
-36 -41 -76 -52 -89 -12 -13 -21 -30 -21 -38 0 -7 -4 -13 -10 -13 -5 0 -10 -6
-10 -12 0 -7 -18 -36 -39 -64 -21 -29 -42 -61 -45 -71 -4 -11 -15 -28 -26 -38
-23 -20 -24 -20 -425 119 -88 30 -176 60 -195 67 -19 7 -44 15 -55 19 -63 23
-497 167 -590 197 -60 19 -118 39 -127 44 -10 5 -24 9 -32 9 -8 0 -26 10 -39
23 -14 12 -52 46 -84 75 l-60 53 -7 293 -7 293 35 107 c49 150 79 297 111 538
6 44 8 47 44 53 91 15 168 82 249 219 130 217 205 571 156 735 -19 66 -76 125
-136 142 -24 7 -46 15 -50 18 -4 3 2 43 12 87 26 109 86 445 101 564 14 109
17 307 6 363 l-8 39 32 -19 c17 -10 52 -42 77 -71 50 -57 62 -55 62 13 0 60
-27 160 -62 234 -22 47 -52 87 -106 139 -41 40 -72 75 -70 77 8 8 113 -25 174
-55 34 -17 85 -51 113 -76 48 -44 51 -45 51 -21 0 42 -71 169 -125 223 -31 31
-78 64 -120 84 -39 18 -71 34 -73 35 -2 2 20 32 48 67 56 69 94 143 105 201 8
42 8 42 -60 21 -105 -32 -283 -40 -324 -14 -7 4 -18 36 -26 72 -25 121 -77
200 -168 259 -67 43 -124 63 -238 82 l-74 12 -3 35 c-5 60 -23 139 -33 146 -6
3 -37 -6 -68 -20 -70 -31 -167 -46 -227 -35 -62 12 -109 39 -184 104 -36 32
-94 72 -130 89 -61 29 -72 31 -176 31 -107 0 -112 -1 -185 -37 -49 -24 -111
-69 -184 -134 -138 -122 -163 -138 -266 -173 -97 -33 -237 -66 -246 -58 -8 9
66 99 123 147 27 24 73 59 103 78 33 21 50 37 44 43 -22 22 -133 33 -211 21
-348 -51 -621 -418 -622 -832 l0 -65 -84 -43 c-178 -91 -301 -250 -356 -459
-34 -134 -30 -391 10 -563 31 -131 33 -133 63 -74 l25 49 7 -60 c3 -33 22
-150 40 -260 19 -110 35 -211 37 -224 3 -20 -4 -26 -36 -37 -62 -22 -106 -62
-133 -121 -24 -53 -25 -61 -20 -202 4 -120 10 -167 36 -266 72 -279 219 -475
383 -509 28 -6 38 -35 54 -166 14 -118 55 -308 86 -399 36 -106 34 -66 30
-508 l-2 -202 -47 -45 c-117 -108 -127 -114 -217 -146 -50 -17 -98 -33 -106
-36 -14 -4 -480 -160 -490 -165 -3 -1 -9 -3 -15 -4 -5 -1 -48 -16 -95 -33 -47
-17 -184 -63 -305 -103 -121 -40 -239 -80 -262 -90 l-42 -18 -34 42 c-42 52
-58 82 -49 92 4 3 2 5 -3 3 -6 -2 -11 1 -12 6 -1 5 -5 12 -10 15 -15 11 -84
122 -130 209 -25 48 -50 93 -55 99 -6 7 -7 13 -3 13 5 0 1 8 -7 18 -18 20 -70
129 -121 252 -88 215 -171 502 -192 670 -2 20 -11 79 -20 131 -46 286 -40 690
16 1048 146 928 754 1843 1586 2384 112 73 282 172 355 208 40 19 51 31 65 68
67 175 272 375 469 459 55 23 202 52 266 52 62 0 189 -29 246 -56 l53 -26 37
29 c99 75 185 121 282 148 77 21 243 14 330 -14z m330 -635 c69 -14 160 -28
203 -32 63 -6 75 -9 66 -20 -6 -8 -15 -11 -20 -8 -5 3 -9 0 -9 -5 0 -6 -3 -10
-7 -9 -5 1 -35 -8 -68 -22 -86 -34 -261 -34 -355 -1 -103 36 -222 93 -213 102
16 16 118 28 198 24 44 -2 136 -15 205 -29z m-606 -81 c139 -29 268 -110 370
-230 77 -91 120 -173 180 -343 53 -148 82 -214 118 -265 11 -16 18 -31 15 -34
-11 -10 -106 28 -164 66 -78 51 -173 154 -262 286 -41 60 -91 127 -110 148
-50 56 -138 112 -212 137 -117 40 -292 16 -395 -54 -63 -43 -152 -136 -185
-193 -46 -80 -53 -78 -46 9 13 146 82 271 202 362 141 108 316 148 489 111z
m-559 -55 c-4 -6 -30 -22 -58 -36 -141 -72 -273 -183 -346 -293 -20 -30 -50
-97 -67 -149 -30 -91 -32 -94 -44 -71 -22 40 -25 167 -5 235 42 147 170 264
337 308 63 17 192 21 183 6z m-762 -642 c13 -18 27 -38 31 -45 4 -8 -18 -24
-66 -46 -87 -40 -182 -117 -240 -193 -23 -31 -44 -51 -46 -45 -5 15 26 117 49
163 28 54 116 138 179 171 30 15 57 27 62 27 4 0 18 -15 31 -32z m797 -178
c350 -37 687 -135 898 -262 96 -58 235 -185 297 -273 106 -148 167 -317 142
-391 -18 -55 -55 -72 -240 -111 -284 -59 -350 -82 -433 -149 -40 -33 -43 -34
-92 -24 -34 6 -71 6 -111 -1 l-61 -11 -46 41 c-54 47 -120 74 -264 107 -139
31 -439 74 -519 74 l-65 0 -87 -85 -86 -85 -62 0 c-60 0 -62 1 -56 23 4 12 25
58 48 102 l42 80 5 345 5 346 35 69 c89 178 292 242 650 205z m-41 -1271 c213
-34 281 -102 281 -279 0 -216 -102 -392 -254 -439 -133 -41 -316 -35 -422 13
-138 63 -223 235 -224 451 0 100 14 151 50 185 30 28 105 56 187 70 71 12 308
11 382 -1z m1307 -45 c92 -45 217 -145 304 -244 108 -124 117 -149 76 -236
-49 -106 -145 -182 -261 -210 -99 -23 -268 -15 -350 16 -83 32 -173 122 -204
205 -31 82 -52 208 -45 269 16 145 78 206 242 239 84 17 143 7 238 -39z
m-2293 -136 c45 -61 70 -159 87 -338 6 -63 14 -151 19 -195 5 -44 5 -84 0 -89
-5 -5 -21 -3 -39 4 -84 35 -142 189 -169 445 -15 140 3 205 55 205 14 0 32
-12 47 -32z m1587 16 c22 -9 45 -25 50 -35 6 -10 10 -169 10 -392 l0 -375 -36
-32 c-54 -47 -68 -50 -192 -32 -150 22 -158 13 -53 -64 45 -32 81 -64 81 -70
0 -6 -52 -21 -117 -33 -326 -61 -465 -126 -559 -257 -26 -36 -48 -64 -49 -62
-2 2 -30 56 -64 121 -68 134 -132 227 -256 371 -46 55 -91 114 -99 131 -16 33
-61 375 -50 375 1 0 22 -36 48 -80 58 -100 105 -153 178 -201 188 -121 543
-111 719 21 128 96 204 253 231 480 12 104 18 117 63 136 39 17 47 17 95 -2z
m94 -1450 c19 -18 19 -22 5 -79 -6 -24 -24 -55 -41 -72 l-29 -28 -177 -5
c-154 -4 -177 -7 -180 -21 -5 -28 36 -103 84 -153 50 -51 53 -74 15 -125 -83
-116 -242 -83 -342 71 -94 145 -108 356 -28 412 21 14 64 16 351 16 284 0 329
-2 342 -16z m-1129 -442 c141 -205 261 -331 475 -503 80 -64 183 -148 230
-186 47 -38 157 -125 245 -192 275 -212 414 -325 420 -342 7 -21 -100 -297
-124 -322 -28 -29 -245 -44 -414 -29 -560 50 -927 280 -1147 720 -22 44 -40
86 -39 93 0 8 48 57 106 109 58 52 125 113 149 136 l44 41 0 266 c0 147 3 267
8 267 4 0 25 -26 47 -58z m-1574 -1343 c36 -38 39 -83 7 -111 -12 -10 -28 -16
-35 -13 -8 2 -11 0 -8 -5 8 -14 -21 -13 -48 2 -37 20 -47 35 -47 77 0 31 6 44
26 60 38 30 71 26 105 -10z m5222 19 c33 -17 46 -39 47 -77 0 -64 -58 -99
-113 -69 -32 17 -46 39 -46 73 0 33 13 55 44 73 26 15 41 15 68 0z m-444 -55
c5 -10 23 -76 39 -148 91 -387 92 -395 69 -395 -19 0 -537 258 -537 268 0 4
18 25 40 47 l40 39 151 -78 c83 -42 154 -75 156 -72 3 2 -11 67 -31 143 l-36
138 42 37 c49 43 54 45 67 21z m-4088 -194 c21 -17 39 -34 39 -39 0 -22 -162
-288 -199 -327 -66 -70 -200 -72 -274 -5 -20 18 -57 84 -57 102 0 10 80 50 99
50 4 0 14 -12 21 -26 8 -14 27 -32 42 -40 25 -13 32 -13 59 1 16 9 42 36 57
61 57 96 162 254 168 254 3 0 24 -14 45 -31z m3585 -218 c-4 -5 -53 -32 -111
-60 -58 -27 -105 -52 -105 -55 0 -13 34 -76 41 -76 4 0 42 16 85 35 42 19 80
35 85 35 5 0 18 -19 30 -42 25 -49 26 -48 -83 -104 -38 -19 -68 -37 -68 -40 0
-9 40 -84 45 -84 3 0 55 25 115 55 60 30 114 55 120 55 14 0 52 -79 46 -96 -7
-18 -333 -177 -350 -171 -6 3 -34 54 -60 113 -27 60 -76 167 -108 238 -44 95
-57 131 -48 140 6 6 79 45 163 86 l152 76 28 -48 c16 -26 26 -52 23 -57z
m-3323 64 c20 -14 37 -32 37 -40 0 -9 -31 -78 -70 -155 -38 -77 -70 -151 -70
-166 0 -16 13 -39 34 -60 40 -40 89 -46 129 -14 14 11 58 82 96 158 94 183 79
168 139 138 l51 -26 -16 -37 c-42 -103 -134 -283 -158 -312 -91 -108 -286 -93
-370 27 -27 39 -30 52 -30 120 l0 77 84 158 c46 86 89 157 95 157 6 0 28 -11
49 -25z m2722 -279 c105 -48 168 -148 168 -265 0 -97 -37 -162 -123 -216 -46
-29 -270 -99 -281 -88 -7 7 -32 96 -131 451 -11 40 -18 76 -14 79 3 4 52 19
109 34 130 35 205 37 272 5z m-2021 -101 c14 -55 43 -179 65 -275 23 -96 43
-186 46 -199 6 -23 5 -24 -38 -18 -81 11 -92 19 -106 81 -14 62 -9 59 -142
106 l-66 24 -56 -48 -56 -48 -57 26 -58 27 55 57 c172 182 374 381 380 374 4
-4 19 -52 33 -107z m504 -130 c73 -91 136 -165 140 -165 4 0 8 21 9 48 6 153
16 234 29 239 8 3 34 2 59 -1 l45 -7 0 -66 c0 -107 -31 -497 -40 -507 -6 -5
-16 -4 -25 4 -16 13 -214 252 -250 302 -24 33 -45 36 -45 6 0 -61 -23 -254
-31 -264 -6 -8 -25 -8 -62 -2 -28 5 -54 11 -55 13 -4 4 43 455 55 528 4 26 11
37 22 37 10 0 73 -70 149 -165z m856 84 c4 -29 3 -55 -1 -60 -4 -4 -58 -11
-120 -15 -61 -4 -116 -10 -121 -13 -6 -4 -8 -24 -5 -50 l6 -43 92 7 92 7 7
-32 c14 -73 12 -77 -55 -84 -34 -3 -77 -6 -95 -6 l-34 0 0 -56 c0 -55 0 -56
28 -50 15 3 73 8 129 12 115 7 109 10 116 -76 l2 -35 -80 -11 c-44 -6 -133
-14 -197 -18 l-117 -6 -5 43 c-8 65 -29 507 -25 512 5 5 200 20 300 23 l76 3
7 -52z"/>
<path d="M2399 5327 c-24 -13 -57 -42 -73 -65 -25 -35 -30 -52 -30 -104 0 -81
22 -127 75 -158 115 -64 252 48 194 160 -23 44 -62 70 -108 70 -34 0 -38 2
-27 15 7 8 28 15 47 15 39 0 73 15 73 33 0 16 -62 57 -87 57 -11 0 -40 -10
-64 -23z m62 -177 c34 -19 20 -90 -18 -90 -15 0 -53 36 -53 50 0 11 36 50 46
50 3 0 14 -5 25 -10z"/>
<path d="M7323 5327 c-34 -12 -64 -25 -68 -29 -11 -11 19 -48 40 -48 39 0 45
-18 45 -142 l0 -118 27 -6 c54 -14 58 -2 61 176 2 161 -3 191 -32 189 -6 0
-39 -10 -73 -22z"/>
<path d="M2761 5322 c-57 -28 -75 -63 -79 -147 -4 -62 -1 -80 18 -113 94 -167
330 -52 289 140 -24 112 -132 170 -228 120z m110 -91 c22 -23 29 -39 29 -69 0
-86 -80 -125 -120 -59 -29 47 -26 93 9 128 16 16 35 29 41 29 6 0 25 -13 41
-29z"/>
<path d="M7660 5322 c-68 -34 -102 -125 -80 -213 13 -52 34 -80 81 -108 102
-62 229 30 229 165 -1 129 -121 211 -230 156z m111 -91 c39 -39 41 -100 4
-136 -13 -14 -31 -25 -40 -25 -73 0 -100 121 -38 170 34 26 39 26 74 -9z"/>
<path d="M2483 2629 c-2 -23 3 -25 10 -4 4 8 3 16 -1 19 -4 3 -9 -4 -9 -15z"/>
<path d="M2461 2624 c0 -11 3 -14 6 -6 3 7 2 16 -1 19 -3 4 -6 -2 -5 -13z"/>
<path d="M6002 1849 c-25 -8 -32 -14 -28 -26 4 -9 18 -57 32 -107 32 -117 54
-176 66 -176 19 0 115 51 132 69 63 69 44 182 -37 231 -35 22 -107 25 -165 9z"/>
<path d="M4053 1711 l-32 -38 41 -17 c23 -8 43 -14 46 -12 6 7 -9 106 -16 106
-4 0 -21 -18 -39 -39z"/>
</g>
</svg>
